<svg xmlns="http://www.w3.org/2000/svg" viewBox="0 0 24 24" id="Monetization-Structure--Streamline-Ultimate" height="24" width="24">
  <desc>
    Monetization Structure Streamline Icon: https://streamlinehq.com
  </desc>
  <defs></defs>
  <path d="M4 23.5a3 3 0 1 0 -3 -3 3 3 0 0 0 3 3Z" fill="#ffda9f" stroke-width="1"></path>
  <path d="M9 17.5h6v6H9Z" fill="#ffda9f" stroke-width="1"></path>
  <path d="m20 17.5 -3 6h6l-3 -6Z" fill="#ffda9f" stroke-width="1"></path>
  <path d="M4 19.841a3 3 0 0 1 2.763 1.829 3 3 0 1 0 -5.526 0A3 3 0 0 1 4 19.841Z" fill="#dff9ff" stroke-width="1"></path>
  <path d="M9 23.5v-6h6Z" fill="#dff9ff" stroke-width="1"></path>
  <path d="m20 17.5 -3 6h3v-6Z" fill="#dff9ff" stroke-width="1"></path>
  <path d="M4 17.5V14a0.5 0.5 0 0 1 0.5 -0.5h15a0.5 0.5 0 0 1 0.5 0.5v3.5" fill="none" stroke="#00303e" stroke-linecap="round" stroke-linejoin="round" stroke-width="1"></path>
  <path d="M12 10.5v7" fill="none" stroke="#00303e" stroke-linecap="round" stroke-linejoin="round" stroke-width="1"></path>
  <path d="M4 23.5a3 3 0 1 0 -3 -3 3 3 0 0 0 3 3Z" fill="none" stroke="#00303e" stroke-linecap="round" stroke-linejoin="round" stroke-width="1"></path>
  <path d="M9 17.5h6v6H9Z" fill="none" stroke="#00303e" stroke-linecap="round" stroke-linejoin="round" stroke-width="1"></path>
  <path d="m20 17.5 -3 6h6l-3 -6Z" fill="none" stroke="#00303e" stroke-linecap="round" stroke-linejoin="round" stroke-width="1"></path>
  <path d="M12 10.5a5 5 0 1 0 -5 -5 5 5 0 0 0 5 5Z" fill="#ffda9f" stroke-width="1"></path>
  <path d="M12 0.5a4.987 4.987 0 0 0 -3.628 8.423l7.051 -7.051A4.966 4.966 0 0 0 12 0.5Z" fill="#dff9ff" stroke-width="1"></path>
  <path d="M12 10.5a5 5 0 1 0 -5 -5 5 5 0 0 0 5 5Z" fill="none" stroke="#00303e" stroke-linecap="round" stroke-linejoin="round" stroke-width="1"></path>
  <path d="M12 7.5v1" fill="none" stroke="#00303e" stroke-linecap="round" stroke-linejoin="round" stroke-width="1"></path>
  <path d="M12 2.5v1" fill="none" stroke="#00303e" stroke-linecap="round" stroke-linejoin="round" stroke-width="1"></path>
  <path d="M10 7.5h3a1 1 0 0 0 0 -2h-2a1 1 0 0 1 0 -2h3" fill="none" stroke="#00303e" stroke-linecap="round" stroke-linejoin="round" stroke-width="1"></path>
</svg>