<svg xmlns="http://www.w3.org/2000/svg" viewBox="0 0 24 24" id="Cash-Payment-Wallet--Streamline-Ultimate" height="24" width="24">
  <desc>
    Cash Payment Wallet Streamline Icon: https://streamlinehq.com
  </desc>
  <defs></defs>
  <path d="M23.452 8.808 21 1.193a1 1 0 0 0 -1.256 -0.645L4.513 5.454a1 1 0 0 0 -0.645 1.257l0.9 2.789H15.5a2 2 0 0 1 2 2v0.275l5.307 -1.708a1 1 0 0 0 0.645 -1.259Z" fill="#ffda9f" stroke-width="1"></path>
  <path d="M19.744 0.548 4.513 5.454a1 1 0 0 0 -0.645 1.257l0.9 2.789h7.238L20.723 0.782a0.989 0.989 0 0 0 -0.979 -0.234Z" fill="#dff9ff" stroke-width="1"></path>
  <path d="m4.768 9.5 -0.9 -2.788a1 1 0 0 1 0.645 -1.258L19.744 0.548A1 1 0 0 1 21 1.194l2.452 7.614a1 1 0 0 1 -0.645 1.259L17.5 11.776" stroke="#00303e" stroke-linecap="round" stroke-linejoin="round" fill="none" stroke-width="1"></path>
  <path d="M4.636 9.1 6.9 4.69" stroke="#00303e" stroke-linecap="round" stroke-linejoin="round" fill="none" stroke-width="1"></path>
  <path d="m21.769 3.568 -4.4 -2.258" stroke="#00303e" stroke-linecap="round" stroke-linejoin="round" fill="none" stroke-width="1"></path>
  <path d="m22.689 6.43 -2.258 4.4" stroke="#00303e" stroke-linecap="round" stroke-linejoin="round" fill="none" stroke-width="1"></path>
  <path d="m14.952 5.24 -3.006 0.969a0.842 0.842 0 0 0 0.315 1.642l2.8 -0.187a0.842 0.842 0 0 1 0.315 1.642l-0.593 0.191" stroke="#00303e" stroke-linecap="round" stroke-linejoin="round" fill="none" stroke-width="1"></path>
  <path d="m13.049 5.862 -0.306 -0.952" stroke="#00303e" stroke-linecap="round" stroke-linejoin="round" fill="none" stroke-width="1"></path>
  <path d="M17.5 14.5v-3a2 2 0 0 0 -2 -2h-13a2 2 0 0 0 -2 2v10a2 2 0 0 0 2 2h13a2 2 0 0 0 2 -2v-3" fill="#dff9ff" stroke-width="1"></path>
  <path d="M15.5 23.5h-13a2 2 0 0 1 -2 -2V19a2 2 0 0 0 2 2h13a2 2 0 0 0 2 -2v2.5a2 2 0 0 1 -2 2Z" fill="#ffda9f" stroke-width="1"></path>
  <path d="M17.5 18.5v3a2 2 0 0 1 -2 2h-13a2 2 0 0 1 -2 -2v-10a2 2 0 0 1 2 -2h13a2 2 0 0 1 2 2v3" stroke="#00303e" stroke-linecap="round" stroke-linejoin="round" fill="none" stroke-width="1"></path>
  <path d="M3.5 9.5v14" stroke="#00303e" stroke-linecap="round" stroke-linejoin="round" fill="none" stroke-width="1"></path>
  <path d="M14 14.5a2 2 0 0 0 0 4h3.5a1 1 0 0 0 1 -1v-2a1 1 0 0 0 -1 -1Z" fill="#ffda9f" stroke="#00303e" stroke-linecap="round" stroke-linejoin="round" stroke-width="1"></path>
  <path d="M16.254 16.25a0.25 0.25 0 1 1 -0.25 0.25 0.25 0.25 0 0 1 0.25 -0.25" stroke="#00303e" stroke-linecap="round" stroke-linejoin="round" fill="none" stroke-width="1"></path>
</svg>