<svg xmlns="http://www.w3.org/2000/svg" viewBox="0 0 24 24" id="Smartphone-Pay-Dollar--Streamline-Ultimate" height="24" width="24">
  <desc>
    Smartphone Pay Dollar Streamline Icon: https://streamlinehq.com
  </desc>
  <defs></defs>
  <path d="M13.5 19.5v-17a2 2 0 0 0 -2 -2h-9a2.006 2.006 0 0 0 -2 2v17Z" fill="#ffda9f" stroke-width="1"></path>
  <path d="M13.249 1.553A1.991 1.991 0 0 0 11.5 0.5h-9a2.006 2.006 0 0 0 -2 2v11.805Z" fill="#dff9ff" stroke-width="1"></path>
  <path d="M13.5 19.5v2a2.006 2.006 0 0 1 -2 2h-9a2.006 2.006 0 0 1 -2 -2v-2Z" stroke="#00303e" stroke-linecap="round" stroke-linejoin="round" fill="#ffffff" stroke-width="1"></path>
  <path d="M7 21.251h0a0.25 0.25 0 0 1 0.25 0.25h0a0.249 0.249 0 0 1 -0.25 0.25h0a0.249 0.249 0 0 1 -0.25 -0.25h0a0.25 0.25 0 0 1 0.25 -0.25" fill="none" stroke="#00303e" stroke-linecap="round" stroke-linejoin="round" stroke-width="1"></path>
  <path d="M0.5 19.5v-17a2.006 2.006 0 0 1 2 -2h9a2 2 0 0 1 2 2h0" fill="none" stroke="#00303e" stroke-linecap="round" stroke-linejoin="round" stroke-width="1"></path>
  <path d="m13.498 19.501 0 -3" fill="none" stroke="#00303e" stroke-linecap="round" stroke-linejoin="round" stroke-width="1"></path>
  <path d="M5.5 5.5a1 1 0 0 1 1 -1h16a1 1 0 0 1 1 1v8a1 1 0 0 1 -1 1h-16a1 1 0 0 1 -1 -1Z" fill="#ffda9f" stroke-width="1"></path>
  <path d="M6.5 4.5a1 1 0 0 0 -1 1v8a1 1 0 0 0 1 1h2.665l10 -10Z" fill="#dff9ff" stroke-width="1"></path>
  <path d="M5.5 5.5a1 1 0 0 1 1 -1h16a1 1 0 0 1 1 1v8a1 1 0 0 1 -1 1h-16a1 1 0 0 1 -1 -1Z" fill="none" stroke="#00303e" stroke-linecap="round" stroke-linejoin="round" stroke-width="1"></path>
  <path d="M5.5 8 9 4.5" fill="none" stroke="#00303e" stroke-linecap="round" stroke-linejoin="round" stroke-width="1"></path>
  <path d="M23.5 8 20 4.5" fill="none" stroke="#00303e" stroke-linecap="round" stroke-linejoin="round" stroke-width="1"></path>
  <path d="M5.5 11 9 14.5" fill="none" stroke="#00303e" stroke-linecap="round" stroke-linejoin="round" stroke-width="1"></path>
  <path d="M23.5 11 20 14.5" fill="none" stroke="#00303e" stroke-linecap="round" stroke-linejoin="round" stroke-width="1"></path>
  <path d="M14.5 11.5v1" fill="none" stroke="#00303e" stroke-linecap="round" stroke-linejoin="round" stroke-width="1"></path>
  <path d="M14.5 6.5v1" fill="none" stroke="#00303e" stroke-linecap="round" stroke-linejoin="round" stroke-width="1"></path>
  <path d="M12.5 11.5h3a1 1 0 1 0 0 -2h-2a1 1 0 0 1 0 -2h3" fill="none" stroke="#00303e" stroke-linecap="round" stroke-linejoin="round" stroke-width="1"></path>
</svg>