<svg xmlns="http://www.w3.org/2000/svg" viewBox="0 0 24 24" id="Saving-Bank-Cash--Streamline-Ultimate" height="24" width="24">
  <desc>
    Saving Bank Cash Streamline Icon: https://streamlinehq.com
  </desc>
  <defs></defs>
  <path d="M13.5 16.274v4.8h-3v-4.8Z" fill="#dff9ff" stroke-width="1"></path>
  <path d="M21.5 16.274v4.8h-3v-4.8Z" fill="#dff9ff" stroke-width="1"></path>
  <path d="M13.5 16.274v2.163h-3v-2.163Z" fill="#ffda9f" stroke-width="1"></path>
  <path d="M21.5 16.274v2.163h-3v-2.163Z" fill="#ffda9f" stroke-width="1"></path>
  <path d="m2.2 4.755 0.758 -3.372a0.5 0.5 0 0 1 0.595 -0.366l8.736 1.824a0.48 0.48 0 0 1 0.382 0.57L11.561 8.3a0.5 0.5 0 0 1 -0.594 0.367l-0.467 -0.1" stroke="#00303e" stroke-linecap="round" stroke-linejoin="round" fill="#ffda9f" stroke-width="1"></path>
  <path d="M15.719 8.292a0.518 0.518 0 0 1 0.554 0l7 4.479a0.476 0.476 0 0 1 0.223 0.4v0.7a0.49 0.49 0 0 1 -0.5 0.48H9a0.49 0.49 0 0 1 -0.5 -0.48v-0.923Z" fill="#dff9ff" stroke-width="1"></path>
  <path d="m13 10.034 2.723 -1.742a0.518 0.518 0 0 1 0.554 0l7 4.479a0.476 0.476 0 0 1 0.223 0.4v0.7a0.49 0.49 0 0 1 -0.5 0.48H9a0.49 0.49 0 0 1 -0.5 -0.48" fill="none" stroke="#00303e" stroke-linecap="round" stroke-linejoin="round" stroke-width="1"></path>
  <path d="M8 22.994h15.5" fill="none" stroke="#00303e" stroke-linecap="round" stroke-linejoin="round" stroke-width="1"></path>
  <path d="M10.5 21.074v-4.8" fill="none" stroke="#00303e" stroke-linecap="round" stroke-linejoin="round" stroke-width="1"></path>
  <path d="M13.5 21.074v-4.8" fill="none" stroke="#00303e" stroke-linecap="round" stroke-linejoin="round" stroke-width="1"></path>
  <path d="M18.5 21.074v-4.8" fill="none" stroke="#00303e" stroke-linecap="round" stroke-linejoin="round" stroke-width="1"></path>
  <path d="M21.5 21.074v-4.8" fill="none" stroke="#00303e" stroke-linecap="round" stroke-linejoin="round" stroke-width="1"></path>
  <path d="M9.5 16.274h5" fill="none" stroke="#00303e" stroke-linecap="round" stroke-linejoin="round" stroke-width="1"></path>
  <path d="M17.5 16.274h5" fill="none" stroke="#00303e" stroke-linecap="round" stroke-linejoin="round" stroke-width="1"></path>
  <path d="M0.5 5.254a0.5 0.5 0 0 1 0.5 -0.5h9a0.5 0.5 0 0 1 0.5 0.5v5.72a0.5 0.5 0 0 1 -0.5 0.5H1a0.5 0.5 0 0 1 -0.5 -0.5Z" fill="#dff9ff" stroke-width="1"></path>
  <path d="M1 4.754a0.5 0.5 0 0 0 -0.5 0.5v5.721a0.5 0.5 0 0 0 0.5 0.5h1.259l6.72 -6.721Z" fill="#dff9ff" stroke-width="1"></path>
  <path d="M0.5 5.254a0.5 0.5 0 0 1 0.5 -0.5h9a0.5 0.5 0 0 1 0.5 0.5v5.72a0.5 0.5 0 0 1 -0.5 0.5H1a0.5 0.5 0 0 1 -0.5 -0.5Z" fill="none" stroke="#00303e" stroke-linecap="round" stroke-linejoin="round" stroke-width="1"></path>
  <path d="M5.5 9.554a1.441 1.441 0 1 0 0 -2.88 1.441 1.441 0 1 0 0 2.88Z" fill="#ffffff" stroke="#00303e" stroke-linecap="round" stroke-linejoin="round" stroke-width="1"></path>
</svg>