<svg xmlns="http://www.w3.org/2000/svg" viewBox="0 0 24 24" id="Shield-Key--Streamline-Ultimate" height="24" width="24">
  <desc>
    Shield Key Streamline Icon: https://streamlinehq.com
  </desc>
  <defs></defs>
  <path d="M1.5 3.775v7.637A12.311 12.311 0 0 0 9.719 22.88l1.121 0.414a3.365 3.365 0 0 0 2.32 0l1.121 -0.414A12.311 12.311 0 0 0 22.5 11.412V3.775a1.533 1.533 0 0 0 -0.934 -1.406A24.237 24.237 0 0 0 12 0.5a24.237 24.237 0 0 0 -9.566 1.869A1.533 1.533 0 0 0 1.5 3.775Z" fill="#dff9ff" stroke-width="1"></path>
  <path d="M12 0.5a24.237 24.237 0 0 0 -9.566 1.869A1.533 1.533 0 0 0 1.5 3.775v7.637A12.311 12.311 0 0 0 9.719 22.88l1.121 0.414A3.373 3.373 0 0 0 12 23.5Z" fill="#ffffff" stroke-width="1"></path>
  <path d="M1.5 3.775v7.637A12.311 12.311 0 0 0 9.719 22.88l1.121 0.414a3.365 3.365 0 0 0 2.32 0l1.121 -0.414A12.311 12.311 0 0 0 22.5 11.412V3.775a1.533 1.533 0 0 0 -0.934 -1.406A24.237 24.237 0 0 0 12 0.5a24.237 24.237 0 0 0 -9.566 1.869A1.533 1.533 0 0 0 1.5 3.775Z" fill="none" stroke="#00303e" stroke-linecap="round" stroke-linejoin="round" stroke-width="1"></path>
  <path d="M18.5 5.5h-2l-4.354 4.354a4 4 0 1 0 2 2L18.5 7.5Zm-8 9.25a1.25 1.25 0 1 1 1.25 -1.25 1.25 1.25 0 0 1 -1.25 1.25Z" fill="#ffda9f" stroke-width="1"></path>
  <path d="m7.672 16.328 1.944 -1.944a1.25 1.25 0 0 1 1.768 -1.768L18.5 5.5h-2l-4.354 4.354a4 4 0 0 0 -4.474 6.474Z" fill="#dff9ff" stroke-width="1"></path>
  <path d="M18.5 5.5h-2l-4.354 4.354a4 4 0 1 0 2 2L18.5 7.5Zm-8 9.25a1.25 1.25 0 1 1 1.25 -1.25 1.25 1.25 0 0 1 -1.25 1.25Z" fill="none" stroke="#00303e" stroke-linecap="round" stroke-linejoin="round" stroke-width="1"></path>
</svg>